<?xml version="1.0" standalone="no"?>
<!DOCTYPE svg PUBLIC "-//W3C//DTD SVG 20010904//EN"
 "http://www.w3.org/TR/2001/REC-SVG-20010904/DTD/svg10.dtd">
<svg version="1.0" xmlns="http://www.w3.org/2000/svg"
 width="700.000000pt" height="700.000000pt" viewBox="0 0 700.000000 700.000000"
 preserveAspectRatio="xMidYMid meet">
<metadata>
Created by potrace 1.14, written by Peter Selinger 2001-2017
</metadata>
<g transform="translate(0.000000,700.000000) scale(0.100000,-0.100000)"
fill="#000000" stroke="none">
<path d="M3440 5390 c-1 -14 -4 -19 -7 -12 -4 10 -9 9 -19 -5 -11 -14 -13 -14
-9 -2 4 9 0 16 -9 16 -8 0 -12 -6 -9 -15 5 -12 2 -12 -15 -3 -15 8 -23 8 -28
-1 -4 -7 -3 -8 4 -4 7 4 12 2 12 -3 0 -6 -9 -11 -19 -11 -11 0 -23 -5 -26 -10
-4 -6 -11 -8 -16 -5 -5 3 -6 -2 -2 -11 5 -13 3 -15 -8 -9 -11 7 -12 6 -2 -6
10 -12 8 -15 -8 -16 -12 -1 -17 3 -13 9 4 7 2 8 -5 4 -9 -6 -9 -11 1 -24 11
-14 10 -15 -6 -9 -14 6 -17 4 -12 -8 3 -9 2 -13 -4 -10 -6 3 -20 -1 -32 -9
-12 -9 -18 -16 -12 -16 5 0 15 5 22 12 9 9 12 9 12 1 0 -7 -9 -15 -21 -18 -13
-5 -18 -12 -14 -22 5 -14 3 -14 -12 -2 -15 12 -16 12 -10 -5 7 -17 6 -17 -10
-5 -11 9 -14 10 -9 2 4 -7 3 -13 -2 -13 -6 0 -13 -12 -16 -26 -4 -16 -12 -24
-20 -21 -19 7 -36 -12 -28 -32 5 -14 4 -14 -13 -1 -13 10 -16 11 -11 2 9 -15
-24 -52 -46 -52 -9 0 -9 -3 2 -10 13 -8 12 -10 -5 -11 -11 -1 -24 -1 -29 0 -5
1 -4 -5 3 -13 11 -13 9 -16 -13 -22 -15 -3 -23 -11 -19 -17 4 -7 0 -8 -12 -3
-16 6 -16 4 -4 -11 12 -14 12 -16 -1 -11 -18 7 -38 -12 -32 -30 4 -13 -14 -17
-21 -4 -2 4 -2 1 -1 -6 2 -7 -8 -17 -21 -22 -28 -11 -34 -22 -7 -14 16 5 16 5
-1 -6 -9 -6 -23 -8 -30 -4 -9 6 -9 4 1 -8 9 -11 10 -18 2 -23 -5 -3 -10 -1
-10 5 0 6 -4 9 -10 5 -5 -3 -7 -12 -3 -20 3 -8 1 -15 -4 -15 -6 0 -15 -10 -22
-22 -12 -23 -11 -20 6 32 2 8 -4 3 -13 -12 -10 -16 -22 -28 -26 -28 -5 0 -8
-5 -8 -11 0 -5 6 -7 13 -3 9 5 9 4 1 -5 -6 -7 -20 -13 -31 -14 -12 0 -19 -6
-16 -14 9 -22 -7 -35 -25 -21 -12 10 -14 10 -8 1 4 -7 3 -13 -2 -13 -6 0 -13
-12 -16 -26 -5 -18 -11 -24 -23 -20 -10 4 -14 2 -10 -8 4 -10 1 -13 -9 -9 -10
4 -12 0 -7 -13 4 -12 3 -15 -5 -10 -11 6 -16 -5 -13 -26 0 -4 -7 -4 -16 -1
-12 5 -15 2 -10 -9 4 -12 0 -15 -16 -11 -18 4 -19 3 -7 -6 13 -9 12 -11 -5
-12 -11 -1 -24 -1 -29 0 -5 1 -4 -5 3 -13 11 -13 9 -16 -13 -22 -15 -3 -23
-11 -19 -17 4 -7 0 -8 -12 -3 -16 6 -16 4 -4 -11 12 -15 12 -16 -2 -11 -11 4
-25 -3 -40 -20 -19 -21 -19 -23 -3 -9 11 9 24 17 29 17 4 0 -2 -9 -15 -20 -13
-12 -29 -18 -36 -16 -9 3 -11 -1 -7 -11 4 -11 2 -14 -5 -9 -7 4 -12 2 -12 -3
0 -6 5 -11 12 -11 6 0 8 -3 5 -6 -4 -4 -14 -1 -23 7 -16 13 -16 12 -5 -10 7
-13 8 -21 3 -17 -6 3 -18 -4 -26 -16 -9 -12 -16 -18 -16 -14 0 5 8 19 18 30
17 21 17 21 -5 2 -13 -11 -23 -25 -23 -32 0 -7 -9 -18 -20 -24 -12 -7 -17 -16
-13 -28 5 -14 3 -13 -11 3 -10 11 -15 14 -11 8 3 -7 1 -13 -4 -13 -6 0 -11 -5
-11 -11 0 -5 6 -7 13 -3 8 6 8 3 -1 -9 -8 -9 -18 -15 -22 -14 -5 1 -16 -7 -24
-18 -14 -17 -17 -18 -26 -5 -6 9 -10 10 -10 3 0 -6 5 -15 11 -18 6 -5 3 -13
-10 -22 -12 -8 -18 -19 -15 -25 4 -5 -4 -4 -17 3 -22 11 -23 11 -10 -4 11 -14
11 -18 -2 -23 -9 -3 -21 -3 -26 1 -7 4 -8 -1 -4 -11 5 -14 3 -16 -10 -11 -15
5 -16 3 -7 -12 8 -16 7 -18 -13 -14 -18 4 -19 3 -7 -6 13 -9 13 -11 -2 -11
-10 0 -18 -7 -18 -15 0 -8 -11 -17 -25 -21 -14 -3 -22 -11 -18 -17 4 -7 0 -8
-12 -3 -16 6 -16 4 -4 -11 12 -15 12 -16 -5 -10 -13 5 -17 3 -13 -7 4 -10 1
-13 -7 -10 -8 3 -17 0 -22 -7 -4 -8 -3 -10 4 -5 7 4 12 2 12 -3 0 -10 -21 -16
-42 -12 -4 0 -5 -6 -2 -14 9 -23 -5 -38 -24 -23 -14 12 -14 10 -2 -12 10 -21
10 -23 -1 -13 -10 11 -15 8 -26 -15 -7 -15 -11 -19 -8 -9 7 26 -4 20 -15 -8
-5 -14 -16 -25 -24 -25 -10 0 -13 -6 -9 -17 6 -16 5 -17 -12 -3 -17 14 -18 14
-6 -8 12 -22 11 -23 -8 -13 -17 10 -20 9 -15 -4 4 -10 0 -15 -12 -15 -16 0
-17 -2 -4 -10 13 -8 12 -10 -5 -11 -11 -1 -24 -1 -29 0 -5 1 -4 -5 3 -13 11
-13 9 -16 -13 -22 -14 -3 -23 -10 -20 -15 3 -5 0 -9 -6 -9 -6 0 -8 -5 -4 -12
5 -7 2 -9 -8 -5 -19 7 -38 -11 -31 -29 3 -9 -1 -14 -12 -14 -10 0 -13 5 -9 12
4 6 3 8 -4 4 -6 -3 -9 -16 -7 -27 3 -15 -2 -23 -15 -26 -11 -3 -20 -11 -20
-19 0 -7 -11 -16 -25 -20 -14 -3 -22 -11 -18 -17 4 -7 0 -8 -12 -3 -14 5 -16
4 -7 -7 9 -11 6 -19 -12 -36 -13 -12 -32 -23 -44 -24 -11 0 -18 -6 -15 -14 8
-22 -7 -35 -25 -21 -14 12 -14 10 -2 -12 12 -23 12 -24 -3 -12 -14 12 -17 10
-23 -13 -4 -17 -9 -23 -14 -15 -5 8 -9 5 -13 -9 -3 -12 -10 -21 -17 -21 -6 0
-8 5 -4 12 4 7 3 8 -4 4 -9 -5 -9 -13 -1 -28 6 -11 7 -18 1 -14 -11 7 -35 -18
-26 -27 3 -3 -6 -4 -20 -3 -23 3 -24 1 -14 -12 11 -13 10 -15 -6 -9 -13 5 -17
3 -13 -7 4 -10 1 -13 -9 -9 -10 4 -12 0 -8 -11 4 -11 1 -16 -11 -16 -10 0 -13
5 -9 12 4 7 3 8 -4 4 -9 -5 -9 -13 -2 -26 8 -16 8 -18 -5 -14 -8 4 -15 11 -15
17 0 6 -3 7 -6 4 -4 -4 -2 -13 5 -21 9 -11 8 -15 -5 -20 -9 -3 -21 -3 -27 1
-7 4 -5 -2 3 -12 14 -17 13 -18 -4 -12 -17 7 -17 6 -5 -9 13 -16 12 -16 -11
-4 -22 12 -23 11 -13 -2 15 -17 0 -38 -28 -38 -25 0 -41 -24 -26 -39 10 -11 8
-11 -9 -3 -16 9 -21 8 -21 -3 0 -8 5 -11 10 -8 6 3 7 1 3 -6 -6 -9 -11 -9 -24
1 -14 12 -14 10 -2 -12 13 -24 12 -24 -5 -10 -17 14 -18 13 -13 -2 8 -21 -26
-53 -44 -42 -11 6 -11 5 0 -8 9 -11 10 -18 2 -23 -5 -3 -10 -1 -10 6 0 7 -3 9
-7 5 -5 -4 0 -13 10 -21 16 -11 16 -13 2 -19 -11 -4 -14 -2 -9 6 4 6 3 8 -3 5
-6 -4 -13 -16 -16 -27 -3 -11 -2 -18 3 -15 4 3 7 -6 6 -20 0 -14 -7 -25 -13
-25 -7 0 -13 -5 -13 -11 0 -6 6 -9 14 -6 18 7 15 -15 -4 -39 -8 -10 -10 -15
-4 -11 7 4 14 0 18 -8 3 -8 0 -15 -7 -15 -8 0 -8 -3 2 -9 7 -5 11 -13 7 -19
-5 -9 20 -27 35 -24 4 1 5 -8 2 -18 -4 -15 0 -20 16 -20 11 0 26 -9 33 -19 10
-16 15 -18 27 -8 12 10 13 8 6 -13 -7 -22 -6 -23 9 -11 14 12 20 9 18 -9 0 -3
8 -6 18 -6 11 0 16 5 12 14 -4 12 -2 12 16 1 18 -11 24 -11 34 0 11 11 10 12
-1 6 -9 -5 -12 -4 -7 3 4 6 13 9 22 5 12 -4 12 -8 2 -22 -11 -14 -11 -14 3 -4
9 7 19 10 23 6 4 -4 4 -1 1 8 -4 11 2 14 29 14 20 -1 41 3 48 8 9 6 8 7 -4 3
-10 -3 -18 -1 -18 4 0 6 5 10 11 10 5 0 7 6 3 13 -5 8 -2 8 9 -2 15 -12 17
-11 17 5 0 16 2 17 10 4 8 -12 10 -10 10 10 0 20 2 22 10 10 7 -11 10 -11 10
-2 0 7 5 10 11 6 7 -4 7 1 -1 16 -8 15 -8 20 -1 16 6 -4 11 -1 11 6 0 9 3 9
10 -2 9 -13 10 -13 11 0 1 8 1 18 0 23 -1 4 10 12 24 19 13 6 21 16 18 22 -4
6 2 4 13 -4 10 -8 16 -10 12 -6 -4 5 0 15 10 23 9 8 12 12 5 9 -6 -4 -14 -2
-17 2 -3 5 5 8 17 8 33 -3 38 3 26 27 -7 12 -8 19 -4 15 5 -4 15 -2 23 5 13 9
14 9 8 0 -4 -7 -5 -13 -1 -13 3 0 10 12 15 26 6 14 14 23 19 20 5 -3 14 1 21
9 11 13 10 14 -6 8 -16 -6 -17 -5 -4 9 8 8 21 13 29 10 8 -3 12 -1 8 5 -4 6 1
17 10 24 14 12 16 12 8 0 -6 -10 -4 -12 4 -6 7 4 11 16 8 26 -4 16 -2 17 15 8
15 -8 19 -8 14 0 -4 6 -1 11 6 11 10 0 9 3 -2 11 -12 9 -10 10 8 6 19 -5 21
-3 11 9 -10 12 -9 13 4 9 8 -4 18 -1 23 6 4 8 3 10 -4 5 -7 -4 -12 -2 -12 4 0
6 8 10 18 9 30 -3 33 0 21 24 -6 12 -8 19 -4 15 5 -4 15 -2 23 5 13 10 14 9 7
-2 -5 -10 -4 -12 3 -7 7 4 12 13 12 20 0 7 7 21 15 32 10 12 14 14 12 4 -2 -8
-2 -12 0 -7 3 4 8 5 13 2 4 -3 7 3 6 12 0 9 5 18 13 21 9 3 11 0 6 -9 -7 -12
-5 -12 6 -1 12 11 12 14 -1 22 -11 7 -11 10 -2 10 7 0 11 4 8 9 -3 5 2 8 12 7
9 0 16 5 14 12 -1 8 2 11 8 7 5 -3 10 -2 10 4 0 6 13 24 30 41 16 17 30 25 30
18 0 -9 3 -9 9 2 6 8 7 19 3 25 -3 5 2 4 11 -3 14 -12 16 -11 12 8 -3 18 -2
20 10 10 15 -13 16 4 0 30 -5 10 -1 9 13 -3 20 -19 21 -18 15 5 -2 13 -1 19 4
13 13 -15 36 -18 27 -3 -16 26 -13 38 6 28 21 -11 28 -4 25 26 -1 16 4 20 22
18 21 -2 22 0 11 14 -8 10 -9 13 -1 9 7 -4 14 1 18 12 3 11 17 27 31 36 14 9
22 21 18 27 -4 7 -3 8 5 4 6 -4 8 -12 5 -18 -5 -7 -2 -8 5 -4 7 5 10 15 7 23
-3 8 -1 11 4 8 6 -3 10 2 10 12 0 15 2 16 10 3 8 -13 10 -12 10 3 0 11 4 15
12 11 7 -5 9 -2 5 8 -6 17 25 53 36 41 4 -3 7 -1 7 5 0 7 5 12 11 12 5 0 7 -6
3 -12 -5 -10 -3 -10 7 0 12 11 12 14 -1 22 -11 7 -11 10 -2 10 7 0 11 4 8 9
-3 5 2 8 12 7 9 0 16 5 14 12 -1 8 2 11 7 8 5 -4 12 3 16 14 6 20 43 46 58 42
4 -1 7 3 7 9 0 5 4 7 10 4 5 -3 7 0 5 8 -7 17 30 51 46 41 7 -4 10 -3 5 4 -8
14 23 44 37 35 7 -4 5 2 -3 13 -8 10 -10 16 -6 12 5 -4 15 -3 23 3 16 14 18
33 1 23 -6 -4 -8 -3 -4 4 3 6 18 8 33 6 24 -5 25 -3 12 12 -8 10 -9 15 -3 11
6 -3 16 4 22 18 8 17 17 23 32 20 17 -3 19 -1 11 9 -14 17 5 35 32 31 15 -3
16 -1 6 11 -10 12 -9 13 4 9 8 -4 18 -1 23 6 4 8 3 10 -4 5 -19 -12 -14 2 10
26 18 18 20 18 15 3 -6 -15 -5 -16 7 -6 8 7 13 21 11 31 -3 14 1 17 12 13 11
-4 14 -2 9 6 -5 7 -2 10 6 9 7 -2 12 5 12 14 -1 10 2 15 7 12 5 -3 9 1 9 8 0
9 3 9 10 -2 8 -13 11 -13 22 -1 10 10 10 12 1 7 -7 -4 -13 -2 -13 3 0 11 15
15 34 12 5 -1 4 5 -4 13 -11 14 -7 18 25 31 32 14 35 18 23 32 -8 11 -9 14 -1
10 14 -9 57 29 49 42 -3 4 6 7 19 5 14 -1 28 3 32 8 3 7 1 8 -5 4 -7 -4 -12
-2 -12 3 0 6 5 11 11 11 5 0 7 6 3 13 -5 7 0 6 11 -3 17 -14 18 -14 5 10 -7
14 -9 22 -5 18 4 -4 14 0 22 10 12 15 13 14 2 -8 -11 -23 -11 -24 4 -11 10 7
17 22 17 33 0 16 3 18 14 9 11 -9 14 -8 12 5 0 9 5 19 13 22 9 3 11 0 6 -9 -7
-12 -5 -12 6 -1 12 11 12 14 -1 22 -11 7 -11 10 -2 10 7 0 11 4 8 9 -3 5 2 8
12 7 9 0 16 5 14 12 -1 8 2 11 8 7 5 -3 10 -2 10 4 0 6 14 24 30 41 17 17 30
25 30 18 0 -9 3 -9 9 2 6 8 7 19 3 25 -3 5 2 4 11 -3 14 -12 16 -11 12 8 -3
18 -2 20 10 10 12 -10 13 -8 10 10 -3 18 -2 20 10 10 12 -10 13 -8 10 9 -3 19
-1 20 17 10 16 -9 19 -8 12 3 -16 26 -14 38 6 28 21 -11 28 -4 25 26 -1 16 4
20 22 18 21 -2 22 0 11 14 -7 9 -8 13 -2 9 6 -3 16 5 23 20 6 14 14 23 18 20
3 -4 13 -2 23 3 13 7 22 5 33 -8 15 -17 17 -21 17 -42 0 -5 5 -10 11 -10 5 0
7 5 3 12 -4 7 -3 8 5 4 6 -4 8 -12 5 -18 -5 -7 1 -9 16 -5 17 4 20 3 11 -6
-16 -16 -14 -27 4 -21 11 5 14 2 9 -12 -4 -11 -4 -16 0 -12 11 9 35 -15 28
-27 -3 -5 2 -4 12 4 9 8 16 10 15 5 -4 -21 2 -35 11 -29 6 4 9 1 8 -7 -2 -7 2
-12 9 -11 7 2 10 -4 7 -12 -4 -11 -2 -13 9 -9 8 3 18 0 23 -7 4 -8 3 -10 -4
-5 -8 5 -10 2 -6 -8 3 -9 10 -13 15 -10 5 3 9 0 9 -6 0 -6 5 -8 10 -5 6 3 11
0 11 -7 1 -7 2 -20 3 -28 0 -8 9 -14 19 -12 9 2 17 -2 17 -9 0 -6 8 -9 20 -6
10 3 19 2 18 -2 -2 -22 3 -51 10 -48 9 6 33 -19 25 -27 -4 -3 1 -6 11 -6 9 0
14 -4 11 -10 -3 -5 3 -10 14 -10 23 0 26 -9 11 -28 -7 -9 -7 -9 1 -3 8 6 17 5
26 -5 8 -8 19 -11 25 -8 6 4 8 2 4 -4 -7 -12 21 -45 33 -38 4 3 8 -1 8 -9 0
-12 -3 -12 -16 -2 -12 9 -13 9 -7 0 4 -7 16 -18 28 -24 16 -9 19 -8 13 2 -6 8
-4 10 4 5 7 -5 10 -14 7 -22 -3 -8 -2 -14 3 -14 4 0 18 -9 31 -20 12 -11 28
-17 34 -13 6 4 4 -2 -4 -12 -9 -11 -10 -16 -2 -11 6 4 12 3 12 -2 0 -5 10 -14
23 -21 18 -9 18 -11 2 -6 -20 5 -20 5 -1 -10 14 -10 23 -12 32 -4 9 8 11 5 7
-12 -4 -15 -2 -20 5 -15 6 3 14 1 18 -5 4 -8 3 -9 -4 -5 -7 4 -12 2 -12 -3 0
-6 5 -12 10 -12 6 -1 14 -2 20 -3 5 0 15 -7 22 -14 11 -11 10 -12 -3 -7 -10 4
-20 1 -25 -6 -4 -8 -3 -10 4 -5 15 9 74 -22 67 -34 -4 -6 -1 -10 5 -10 6 0 8
-4 5 -10 -3 -5 1 -10 9 -10 9 0 16 5 16 12 0 6 3 8 6 5 4 -4 1 -14 -7 -23 -13
-16 -12 -17 8 -12 13 4 26 1 30 -4 3 -7 1 -8 -5 -4 -7 4 -12 2 -12 -3 0 -6 5
-11 11 -11 5 0 7 -4 4 -10 -3 -5 1 -10 10 -10 9 0 13 -4 10 -10 -3 -5 4 -10
15 -10 13 0 24 -8 27 -20 5 -18 15 -25 36 -21 5 1 6 -3 3 -8 -7 -11 22 -43 33
-37 4 3 8 -1 8 -9 0 -12 -3 -12 -16 -2 -12 9 -13 9 -7 0 4 -7 16 -18 28 -24
16 -9 19 -8 13 2 -6 8 -4 10 4 5 7 -5 10 -14 7 -21 -3 -8 4 -17 15 -20 10 -4
19 -11 19 -16 0 -6 5 -7 12 -3 7 4 8 3 4 -4 -4 -7 -1 -12 8 -12 9 0 16 -5 16
-11 0 -6 6 -17 14 -25 11 -11 16 -11 20 -1 4 6 4 1 2 -11 -4 -20 -1 -23 15
-19 10 3 22 0 26 -5 3 -7 1 -8 -5 -4 -17 10 -15 -6 4 -33 12 -16 23 -22 40
-18 20 3 22 1 14 -14 -13 -23 -13 -38 0 -19 6 10 10 11 10 3 0 -7 7 -13 16
-13 14 0 14 -3 4 -15 -11 -13 -10 -14 3 -9 9 3 24 -1 32 -10 9 -9 14 -16 10
-16 -3 0 0 -6 7 -14 7 -8 16 -12 21 -9 4 2 7 -1 7 -7 0 -6 6 -18 14 -26 11
-11 16 -11 20 -1 4 6 4 1 2 -11 -4 -19 -1 -23 14 -19 14 3 17 1 13 -11 -4 -10
-2 -13 5 -8 6 3 14 1 18 -5 4 -8 3 -9 -4 -5 -7 4 -12 2 -12 -5 0 -6 8 -9 20
-6 11 3 17 1 14 -4 -3 -6 3 -18 15 -28 11 -10 18 -21 14 -25 -3 -3 4 -6 16 -6
16 0 21 -4 18 -14 -4 -9 2 -17 13 -21 10 -3 21 -12 24 -20 3 -8 12 -15 21 -15
8 0 15 -5 15 -11 0 -6 6 -17 14 -25 11 -11 16 -11 20 -1 4 6 4 2 2 -10 -3 -19
0 -23 22 -23 16 0 22 -3 15 -8 -8 -5 -9 -13 -3 -22 9 -13 10 -13 10 0 1 8 8 3
16 -13 8 -15 12 -33 8 -40 -4 -6 3 -3 16 8 l23 20 -7 -22 c-4 -13 -2 -24 5
-29 8 -5 9 -3 4 7 -7 11 -6 12 7 2 8 -7 18 -9 22 -5 5 4 7 0 6 -8 -4 -29 0
-39 15 -34 11 5 13 2 8 -12 -4 -12 -3 -15 5 -10 7 4 12 1 12 -8 0 -8 5 -18 12
-22 8 -5 9 -2 4 11 -5 15 -4 16 9 5 8 -7 13 -16 10 -20 -3 -5 -1 -11 5 -15 6
-4 8 -10 5 -15 -3 -4 2 -10 10 -13 10 -4 12 -1 9 11 -2 9 1 7 7 -5 7 -13 17
-23 24 -23 16 0 37 -48 28 -63 -3 -7 4 -3 17 8 l23 20 -7 -22 c-4 -13 -2 -24
5 -29 8 -5 9 -3 4 7 -7 11 -6 12 7 2 8 -7 19 -9 23 -5 5 4 5 -1 2 -10 -6 -18
15 -43 27 -31 4 4 4 -1 0 -12 -4 -11 -4 -17 1 -13 4 4 14 0 22 -10 9 -10 11
-11 7 -2 -7 13 -5 13 9 1 9 -7 14 -17 11 -22 -3 -5 0 -9 6 -9 6 0 8 -5 4 -12
-4 -6 -3 -8 4 -4 6 3 13 -3 17 -14 6 -18 9 -19 23 -8 9 7 13 8 9 2 -8 -14 26
-47 38 -37 5 5 4 1 -3 -8 -15 -20 -4 -33 15 -18 13 11 18 1 14 -24 -1 -5 3 -6
8 -2 6 3 8 13 5 23 -2 9 1 7 7 -5 13 -25 24 -29 34 -13 3 5 11 10 17 10 7 0 6
-6 -2 -15 -16 -20 -6 -19 14 1 9 8 16 11 16 5 0 -6 5 -11 11 -11 5 0 7 6 3 13
-6 9 -4 9 8 -1 13 -10 18 -10 24 -1 4 7 3 9 -3 6 -5 -3 -10 0 -10 8 0 10 4 12
12 5 7 -5 16 -6 20 -2 5 4 5 2 1 -5 -3 -6 -2 -15 4 -18 6 -4 10 -3 9 2 -1 4
-1 14 0 22 1 11 4 11 18 0 14 -12 16 -12 11 2 -8 20 55 52 71 36 8 -8 11 -8
11 0 0 6 -6 14 -12 16 -10 4 -9 8 2 16 8 6 11 11 5 11 -5 0 1 7 13 16 12 8 22
21 22 27 0 7 -5 4 -11 -5 -5 -10 -15 -18 -20 -18 -6 0 -3 7 5 16 9 8 16 20 16
25 0 6 6 7 13 3 8 -5 8 -2 -2 9 -12 15 -11 17 3 17 9 0 16 5 16 11 0 5 -4 8
-9 4 -6 -3 -9 3 -9 12 1 26 -5 47 -17 55 -6 5 -5 8 3 8 6 0 12 7 12 15 0 8 -6
15 -12 15 -10 0 -10 2 -1 8 9 6 7 12 -7 22 -11 8 -20 24 -20 37 0 23 -31 40
-51 27 -7 -4 -9 -3 -5 4 3 6 -2 15 -11 21 -10 5 -18 13 -18 18 0 4 -3 7 -7 6
-4 -2 -5 4 -2 12 5 11 2 13 -10 9 -9 -4 -16 -3 -15 2 4 21 -2 44 -11 44 -5 0
-6 -8 -3 -17 6 -15 5 -16 -9 -3 -11 11 -13 19 -6 28 8 9 7 11 -4 7 -8 -3 -22
3 -32 14 -10 11 -23 18 -27 15 -5 -3 -6 3 -2 12 4 12 3 15 -5 10 -8 -5 -10 -1
-5 10 4 12 3 15 -5 10 -7 -4 -12 -1 -12 8 0 9 -5 16 -11 16 -5 0 -7 -6 -3 -12
4 -7 -2 -5 -14 5 -12 11 -18 25 -15 35 5 11 3 13 -7 7 -10 -6 -12 -4 -6 11 6
15 5 16 -5 7 -17 -17 -50 12 -42 35 5 11 3 13 -7 7 -10 -6 -12 -4 -6 10 5 14
4 16 -7 6 -12 -9 -17 -5 -30 21 -9 18 -13 36 -10 42 3 5 1 6 -5 2 -6 -4 -9
-14 -5 -24 3 -11 -1 -9 -11 6 -10 12 -22 20 -27 17 -5 -3 -6 2 -2 11 4 12 3
15 -5 10 -8 -5 -10 -1 -5 10 4 12 3 15 -5 10 -8 -4 -12 0 -12 11 0 15 -2 16
-11 3 -9 -12 -10 -10 -6 8 4 18 3 21 -7 13 -16 -14 -27 -4 -19 17 5 11 2 14
-9 9 -19 -7 -48 22 -48 49 0 16 -2 17 -10 4 -8 -12 -10 -11 -10 6 0 23 -24 38
-43 27 -7 -4 -5 2 3 12 8 10 10 16 4 12 -13 -8 -39 19 -48 51 -4 12 -14 22
-22 22 -9 0 -12 5 -8 12 4 6 3 9 -2 6 -5 -3 -19 -2 -31 3 -16 6 -21 13 -16 25
5 13 3 16 -10 11 -9 -3 -19 -1 -23 5 -4 7 -3 8 4 4 7 -4 12 -2 12 3 0 6 -7 11
-16 11 -10 0 -14 6 -11 14 4 10 -1 13 -16 10 -12 -2 -16 -2 -10 2 17 8 -9 35
-35 37 -10 0 -19 7 -19 14 0 6 4 10 8 7 4 -2 11 0 14 6 4 6 3 9 -2 8 -18 -5
-53 15 -53 30 0 15 -2 15 -10 2 -8 -12 -10 -10 -10 9 0 16 -4 21 -14 18 -20
-8 -28 4 -13 21 9 13 9 14 0 8 -8 -4 -13 -2 -13 4 0 6 -4 8 -10 5 -5 -3 -10 1
-10 9 0 9 -5 16 -11 16 -5 0 -7 -5 -3 -12 4 -7 3 -8 -4 -4 -6 4 -8 14 -5 23 5
13 2 15 -11 10 -11 -4 -19 -1 -23 11 -9 24 -26 33 -36 19 -5 -7 -6 -4 -3 8 7
27 -8 49 -28 42 -9 -4 -15 -1 -13 6 1 7 -4 11 -11 9 -6 -1 -11 1 -11 5 1 5 1
17 0 28 -1 17 -3 18 -11 5 -8 -12 -10 -10 -10 9 0 16 -4 21 -14 18 -21 -8 -27
3 -14 27 10 19 10 20 -5 7 -14 -11 -18 -11 -23 3 -3 9 -11 13 -18 9 -6 -4 -4
2 4 12 9 11 10 16 3 11 -8 -4 -13 -2 -13 5 0 6 -8 9 -20 6 -17 -4 -18 -2 -10
14 8 14 7 17 -4 13 -8 -3 -17 0 -21 6 -5 8 -11 7 -23 -2 -15 -11 -15 -11 -4 3
7 9 10 23 6 32 -5 14 -39 31 -56 28 -5 -1 -7 2 -7 7 1 4 1 16 0 27 -1 17 -3
18 -11 5 -8 -13 -10 -12 -11 5 -1 11 -1 24 0 29 1 5 -4 4 -12 -2 -19 -16 -30
-3 -15 17 7 9 8 13 4 9 -5 -4 -15 0 -23 10 -8 9 -12 12 -9 5 4 -6 1 -15 -5
-19 -7 -4 -9 -3 -6 3 8 13 -17 36 -27 25 -4 -4 -6 0 -4 8 2 8 -3 14 -10 12
-10 -2 -10 2 -1 19 8 15 8 19 0 15 -6 -4 -11 -2 -11 3 0 6 -5 11 -11 11 -5 0
-7 -4 -4 -10 10 -16 -1 -11 -16 7 -10 11 -10 14 -1 9 6 -4 12 -3 12 2 0 12
-29 24 -40 17 -4 -3 -6 4 -3 15 4 14 0 20 -11 20 -11 0 -14 5 -10 12 5 8 2 9
-9 5 -9 -3 -19 -1 -23 5 -4 7 -3 8 4 4 7 -4 12 -3 12 2 0 12 -29 24 -40 17 -4
-3 -6 5 -3 17 4 19 3 20 -7 8 -10 -12 -11 -11 -7 8 5 19 3 21 -9 11 -14 -11
-15 -10 -18 14 -1 6 -9 11 -19 11 -9 -1 -15 2 -12 6 3 5 0 12 -6 15 -5 4 -8
14 -5 22 3 8 1 11 -4 8 -6 -3 -10 -1 -10 4 0 6 -7 11 -16 11 -10 0 -14 6 -10
15 3 8 2 14 -2 14 -20 -3 -32 3 -32 16 0 8 -5 15 -11 15 -5 0 -7 -6 -3 -12 4
-7 -2 -5 -14 6 -12 10 -19 22 -17 27 3 4 -4 10 -15 14 -11 3 -20 11 -20 16 0
6 -4 7 -10 4 -6 -3 -7 1 -4 9 6 14 -5 21 -29 17 -4 0 -6 5 -5 11 2 7 -3 12
-10 10 -10 -2 -10 2 -1 19 7 14 7 19 0 15 -12 -8 -33 28 -23 39 4 5 1 5 -6 1
-11 -6 -10 -13 3 -34 14 -24 13 -24 -9 3 -14 17 -26 36 -26 43 0 6 -5 12 -11
12 -5 0 -7 5 -3 11 4 8 1 8 -13 1 -15 -9 -20 -8 -20 3 0 8 5 12 11 9 6 -3 3 1
-6 9 -10 8 -14 17 -10 21 4 4 3 7 -3 5 -18 -4 -45 13 -38 24 4 6 0 8 -10 4
-10 -3 -17 -2 -17 4 0 6 -5 7 -12 3 -7 -4 -8 -3 -4 4 4 6 2 21 -4 32 -9 17
-14 19 -25 10 -11 -9 -13 -7 -9 14 4 21 0 26 -16 26 -14 0 -19 4 -14 12 5 7 2
9 -8 5 -10 -3 -24 3 -35 15 -10 12 -12 18 -5 14 6 -4 12 -3 12 3 0 5 -9 13
-20 16 -11 3 -20 11 -20 16 0 6 -5 7 -12 3 -7 -4 -8 -3 -4 4 4 7 2 12 -4 12
-6 0 -8 6 -4 13 6 10 4 10 -7 0 -17 -17 -37 -17 -21 -1 7 7 12 17 12 23 0 5
-5 3 -10 -5 -6 -10 -10 -11 -10 -2 0 6 -12 12 -26 12 -14 0 -23 4 -19 9 3 5 0
13 -6 17 -8 5 -9 3 -4 -6 6 -10 3 -12 -14 -7 -18 4 -20 3 -10 -9 16 -19 4 -18
-15 2 -12 12 -16 12 -17 2 -1 -7 -5 -2 -9 12 l-8 25 -2 -25z m409 -314 c-3 -3
-11 5 -18 17 -13 21 -12 21 5 5 10 -10 16 -20 13 -22z m-79 -530 c0 -2 -7 -6
-15 -10 -8 -3 -15 -1 -15 4 0 6 7 10 15 10 8 0 15 -2 15 -4z m1485 -857 c11
-16 1 -19 -13 -3 -7 8 -8 14 -3 14 5 0 13 -5 16 -11z m-591 -55 c3 -8 2 -12
-4 -9 -6 3 -10 10 -10 16 0 14 7 11 14 -7z m-3584 -544 c0 -5 -5 -10 -11 -10
-5 0 -7 5 -4 10 3 6 8 10 11 10 2 0 4 -4 4 -10z m4855 -81 c11 -16 1 -19 -13
-3 -7 8 -8 14 -3 14 5 0 13 -5 16 -11z m-14 -322 c-10 -9 -11 -8 -5 6 3 10 9
15 12 12 3 -3 0 -11 -7 -18z"/>
<path d="M3676 5258 c3 -5 10 -6 15 -3 13 9 11 12 -6 12 -8 0 -12 -4 -9 -9z"/>
<path d="M3110 5160 c0 -5 5 -10 11 -10 5 0 7 5 4 10 -3 6 -8 10 -11 10 -2 0
-4 -4 -4 -10z"/>
<path d="M3790 5159 c0 -5 5 -7 10 -4 6 3 10 8 10 11 0 2 -4 4 -10 4 -5 0 -10
-5 -10 -11z"/>
<path d="M3992 4954 c10 -10 20 -16 22 -13 3 3 -5 11 -17 18 -21 13 -21 12 -5
-5z"/>
<path d="M4030 4923 c0 -6 8 -17 18 -24 16 -13 16 -13 2 6 -8 11 -16 22 -17
24 -2 2 -3 0 -3 -6z"/>
<path d="M4075 4860 c3 -5 8 -10 11 -10 2 0 4 5 4 10 0 6 -5 10 -11 10 -5 0
-7 -4 -4 -10z"/>
<path d="M3466 4812 c-3 -6 -1 -14 5 -17 15 -10 25 3 12 16 -7 7 -13 7 -17 1z"/>
<path d="M3430 4801 c0 -6 4 -13 10 -16 6 -3 7 1 4 9 -7 18 -14 21 -14 7z"/>
<path d="M2627 4679 c7 -7 15 -10 18 -7 3 3 -2 9 -12 12 -14 6 -15 5 -6 -5z"/>
<path d="M3200 4570 c-8 -5 -12 -12 -9 -15 4 -3 12 1 19 10 14 17 11 19 -10 5z"/>
<path d="M4430 4517 c0 -2 6 -10 14 -16 11 -9 16 -9 22 1 4 7 4 10 -1 6 -4 -4
-14 -3 -22 3 -7 6 -13 9 -13 6z"/>
<path d="M4566 4378 c3 -5 10 -6 15 -3 13 9 11 12 -6 12 -8 0 -12 -4 -9 -9z"/>
<path d="M2149 4183 c-13 -16 -12 -17 4 -4 9 7 17 15 17 17 0 8 -8 3 -21 -13z"/>
<path d="M4805 4140 c3 -5 8 -10 11 -10 2 0 4 5 4 10 0 6 -5 10 -11 10 -5 0
-7 -4 -4 -10z"/>
<path d="M2016 4053 c-6 -14 -5 -15 5 -6 7 7 10 15 7 18 -3 3 -9 -2 -12 -12z"/>
<path d="M2665 4040 c-3 -5 -1 -10 4 -10 6 0 11 5 11 10 0 6 -2 10 -4 10 -3 0
-8 -4 -11 -10z"/>
<path d="M4900 4039 c0 -5 5 -7 10 -4 6 3 10 8 10 11 0 2 -4 4 -10 4 -5 0 -10
-5 -10 -11z"/>
<path d="M2630 4001 c0 -6 4 -13 10 -16 6 -3 7 1 4 9 -7 18 -14 21 -14 7z"/>
<path d="M2475 3841 c-3 -5 -2 -12 3 -15 5 -3 9 1 9 9 0 17 -3 19 -12 6z"/>
<path d="M2400 3770 c-8 -5 -12 -12 -9 -15 4 -3 12 1 19 10 14 17 11 19 -10 5z"/>
<path d="M5195 3750 c-3 -5 -1 -10 4 -10 6 0 11 5 11 10 0 6 -2 10 -4 10 -3 0
-8 -4 -11 -10z"/>
<path d="M5280 3671 c0 -6 4 -13 10 -16 6 -3 7 1 4 9 -7 18 -14 21 -14 7z"/>
<path d="M2271 3646 c-8 -10 -9 -16 -1 -21 6 -4 9 -1 8 7 -2 7 3 12 10 10 8
-1 11 2 7 8 -8 13 -10 13 -24 -4z"/>
<path d="M1560 3616 c0 -2 7 -7 16 -10 8 -3 12 -2 9 4 -6 10 -25 14 -25 6z"/>
<path d="M1536 3573 c-6 -14 -5 -15 5 -6 7 7 10 15 7 18 -3 3 -9 -2 -12 -12z"/>
<path d="M5381 3569 c0 -9 6 -22 14 -29 10 -9 15 -9 15 -1 0 6 -4 11 -9 11 -5
0 -12 8 -14 18 -4 14 -5 14 -6 1z"/>
<path d="M2160 3530 c-8 -5 -12 -12 -9 -15 4 -3 12 1 19 10 14 17 11 19 -10 5z"/>
<path d="M1471 3504 c-7 -8 -11 -17 -9 -20 3 -2 13 5 23 16 10 11 14 20 9 20
-5 -1 -15 -8 -23 -16z"/>
<path d="M5560 3391 c0 -6 4 -13 10 -16 6 -3 7 1 4 9 -7 18 -14 21 -14 7z"/>
<path d="M1284 3318 l-19 -23 23 19 c21 18 27 26 19 26 -2 0 -12 -10 -23 -22z"/>
<path d="M5616 3332 c-3 -5 1 -15 8 -21 11 -10 14 -9 12 3 -3 21 -13 29 -20
18z"/>
<path d="M1920 3290 c-8 -5 -12 -12 -9 -15 4 -3 12 1 19 10 14 17 11 19 -10 5z"/>
<path d="M5675 3260 c3 -5 8 -10 11 -10 2 0 4 5 4 10 0 6 -5 10 -11 10 -5 0
-7 -4 -4 -10z"/>
<path d="M5760 3186 c0 -2 7 -9 15 -16 13 -11 14 -10 9 4 -5 14 -24 23 -24 12z"/>
<path d="M1100 3129 c0 -5 5 -7 10 -4 6 3 10 8 10 11 0 2 -4 4 -10 4 -5 0 -10
-5 -10 -11z"/>
<path d="M5895 3061 c-6 -11 13 -26 22 -17 4 3 1 6 -6 6 -7 0 -9 5 -6 10 3 6
4 10 1 10 -3 0 -7 -4 -11 -9z"/>
<path d="M976 3004 c-5 -14 -4 -15 9 -4 17 14 19 20 6 20 -5 0 -12 -7 -15 -16z"/>
<path d="M3380 2770 c-1 -14 -4 -19 -7 -12 -2 6 -9 12 -14 12 -6 0 -7 -4 -4
-10 3 -5 3 -10 -2 -11 -4 0 -16 -2 -26 -4 -9 -2 -15 0 -13 4 3 4 -4 7 -14 7
-15 0 -17 -3 -7 -15 8 -10 8 -13 1 -8 -7 4 -17 0 -24 -8 -6 -7 -19 -11 -27 -8
-10 4 -14 2 -10 -4 3 -5 0 -10 -8 -10 -8 0 -12 5 -9 11 3 6 -2 2 -10 -8 -12
-15 -16 -16 -16 -5 0 12 -2 12 -10 -1 -5 -8 -10 -11 -10 -6 0 6 -16 -5 -35
-24 -22 -21 -33 -40 -30 -49 3 -9 3 -12 -1 -8 -4 4 -17 -1 -28 -10 -21 -18
-21 -18 -3 4 14 16 15 23 6 29 -7 4 -10 3 -6 -3 4 -6 0 -16 -8 -23 -8 -7 -15
-18 -15 -25 0 -7 -15 -22 -32 -34 -18 -11 -28 -21 -22 -21 5 0 15 5 21 11 8 8
13 7 18 -2 5 -7 4 -10 -1 -7 -5 3 -15 0 -22 -8 -7 -8 -9 -14 -5 -14 4 -1 -3
-10 -16 -20 -14 -12 -18 -20 -10 -20 8 -1 4 -6 -8 -13 -16 -9 -20 -16 -13 -27
7 -11 3 -20 -13 -32 -17 -13 -19 -20 -10 -29 10 -10 10 -16 1 -27 -13 -16 -20
-45 -9 -38 4 3 8 -4 8 -15 1 -10 -3 -19 -8 -19 -6 0 -7 5 -3 12 4 6 3 8 -4 4
-5 -3 -13 0 -15 6 -4 10 -6 10 -6 0 -1 -7 8 -20 19 -29 22 -19 26 -33 9 -33
-5 0 -8 4 -5 8 3 5 -2 9 -10 9 -10 0 -8 -7 8 -25 13 -14 17 -22 9 -17 -11 6
-13 4 -7 -11 8 -21 9 -24 7 -42 0 -7 -6 -10 -13 -6 -7 4 -8 3 -4 -5 6 -9 11
-9 21 -1 12 10 13 6 5 -20 -8 -27 -7 -31 7 -26 12 5 13 4 5 -7 -7 -8 -9 -17
-5 -21 4 -4 2 -10 -4 -14 -9 -5 -5 -12 10 -21 20 -13 21 -13 9 2 -9 10 -10 17
-2 22 6 4 10 3 9 -2 -1 -4 0 -10 1 -13 8 -21 6 -40 -3 -40 -7 0 -6 -4 3 -9 8
-6 19 -7 25 -4 5 3 4 0 -2 -8 -16 -16 -17 -29 -2 -29 5 0 7 5 4 10 -3 6 -1 10
6 10 7 0 9 -10 7 -24 -4 -20 -1 -24 14 -21 17 4 18 2 7 -11 -10 -12 -9 -16 9
-21 12 -3 22 -9 22 -13 0 -9 36 -50 44 -50 4 0 4 5 0 12 -4 6 -3 8 4 5 5 -4 8
-17 5 -30 -4 -18 -3 -19 6 -7 8 11 11 12 11 2 0 -8 5 -10 12 -6 8 5 9 2 5 -9
-3 -9 -1 -19 5 -23 7 -4 8 -3 4 4 -10 17 1 15 23 -5 11 -9 17 -21 14 -26 -3
-6 -1 -7 5 -3 6 3 13 2 17 -4 4 -7 13 -6 27 1 15 8 19 8 14 0 -10 -15 27 -14
44 1 8 7 6 3 -3 -9 -14 -16 -15 -23 -6 -29 8 -4 10 -3 5 5 -6 9 0 10 20 5 16
-4 34 -7 41 -7 7 0 13 -5 13 -10 0 -5 7 -4 15 3 11 9 15 9 15 1 0 -7 5 -9 12
-5 14 9 108 12 108 4 0 -3 9 -6 19 -6 15 0 17 4 10 13 -8 9 -4 10 20 3 25 -7
31 -6 31 6 0 8 4 13 10 9 5 -3 7 -13 4 -23 -5 -15 -4 -15 6 1 6 9 16 14 22 11
7 -4 8 -2 4 5 -4 6 -12 9 -17 6 -15 -10 -10 2 8 16 9 8 14 9 10 3 -4 -7 0 -14
8 -18 8 -3 17 0 21 6 5 7 2 8 -6 3 -9 -5 -11 -4 -6 4 6 9 11 9 22 0 11 -9 16
-6 23 12 5 13 10 20 10 15 1 -6 8 -1 17 10 8 10 13 14 10 7 -4 -7 1 -11 13
-10 16 1 18 4 8 16 -10 12 -9 14 7 8 17 -7 17 -6 5 9 -13 16 -12 16 10 5 19
-11 22 -11 16 0 -6 9 -3 10 10 5 14 -5 15 -3 7 6 -7 10 -4 20 14 41 13 15 24
25 24 21 0 -4 -10 -19 -22 -33 -19 -22 -18 -21 9 3 18 16 32 32 31 35 -2 18 3
31 12 31 5 0 7 -8 4 -17 -5 -17 -5 -17 6 -1 6 9 9 28 6 41 -3 17 1 24 12 24
10 0 20 -5 24 -11 4 -6 6 -1 5 11 0 12 -6 19 -12 17 -5 -3 -2 1 8 9 18 15 24
32 7 22 -5 -3 -10 -1 -10 6 0 6 8 9 19 6 14 -3 18 -1 14 9 -3 8 -10 11 -16 7
-6 -3 -7 -1 -3 5 4 7 15 12 24 12 13 0 14 2 3 9 -9 6 -10 11 -2 15 15 10 14
29 -1 21 -7 -4 -2 3 12 16 l25 22 -25 -7 c-14 -4 -20 -4 -15 1 6 4 11 24 12
43 1 52 2 53 17 47 10 -4 13 -1 9 8 -3 8 -9 12 -14 9 -5 -3 -6 2 -3 10 3 9 11
13 16 10 6 -4 6 1 -1 13 -6 11 -7 23 -4 27 3 3 -2 6 -13 7 -18 0 -18 1 1 9 18
8 18 9 -5 9 -14 1 -20 5 -15 9 15 11 17 32 3 32 -9 0 -8 4 2 10 11 7 11 10 2
10 -7 0 -12 6 -11 13 3 26 -1 38 -12 31 -8 -4 -7 -9 2 -16 12 -8 11 -9 -1 -6
-9 3 -14 17 -13 42 0 27 -3 36 -13 32 -7 -3 -16 0 -20 6 -4 6 -3 8 4 4 6 -3
13 -2 17 4 3 5 0 10 -8 10 -8 0 -21 8 -28 18 -11 14 -11 15 1 5 20 -18 34 -16
16 2 -8 8 -19 15 -24 15 -6 0 -13 7 -16 16 -6 15 -4 15 11 3 16 -13 17 -12 4
4 -7 9 -20 17 -28 17 -11 0 -14 7 -10 21 5 17 3 18 -11 7 -14 -11 -15 -10 -9
6 6 15 5 17 -7 7 -11 -9 -15 -8 -20 5 -3 9 -3 21 1 26 3 6 1 8 -5 4 -6 -3 -17
0 -25 8 -11 11 -17 12 -26 3 -6 -6 -12 -8 -12 -4 -1 4 -3 12 -4 17 -1 6 -3 15
-4 22 0 7 -8 3 -17 -8 -8 -10 -13 -14 -10 -7 4 6 0 18 -8 26 -8 8 -12 18 -8
22 4 5 1 5 -6 1 -10 -6 -10 -11 -2 -21 8 -10 8 -15 -1 -21 -7 -4 -10 -3 -6 2
14 24 -39 52 -55 29 -4 -6 -8 -1 -8 9 0 19 0 19 -22 0 -13 -10 -18 -12 -11 -4
8 12 7 18 -5 30 -14 13 -15 12 -9 -3 3 -9 1 -19 -5 -23 -7 -4 -8 -3 -4 4 4 7
3 12 -3 12 -6 0 -8 8 -5 18 5 14 4 15 -5 2 -10 -13 -12 -13 -21 0 -8 12 -10
10 -10 -10 -1 -22 -2 -23 -11 -7 -5 9 -15 17 -20 17 -6 0 -8 -4 -4 -9 3 -5 0
-13 -7 -17 -7 -4 -10 -4 -6 1 11 12 -11 35 -28 28 -8 -3 -14 -13 -15 -22 0
-12 -2 -12 -9 4 l-9 20 -1 -20 c-2 -17 -3 -16 -10 5 l-8 25 -2 -25z m70 0 c0
-5 -5 -10 -11 -10 -5 0 -7 5 -4 10 3 6 8 10 11 10 2 0 4 -4 4 -10z m-275 -90
c4 -6 2 -9 -4 -8 -5 2 -17 -6 -26 -17 -17 -20 -10 0 8 23 12 15 14 15 22 2z
m819 -410 c-6 -6 -10 -3 -10 10 0 13 4 16 10 10 7 -7 7 -13 0 -20z m-770 -516
c5 -14 4 -15 -9 -4 -17 14 -19 20 -6 20 5 0 12 -7 15 -16z"/>
<path d="M1393 2755 c0 -8 4 -12 9 -9 4 3 8 9 8 15 0 5 -4 9 -8 9 -5 0 -9 -7
-9 -15z"/>
<path d="M5525 2749 c-4 -6 -5 -12 -2 -15 2 -3 7 2 10 11 7 17 1 20 -8 4z"/>
<path d="M3230 2735 c0 -7 30 -13 34 -7 3 4 -4 9 -15 9 -10 1 -19 0 -19 -2z"/>
<path d="M1002 2646 c7 -8 15 -12 17 -11 5 6 -10 25 -20 25 -5 0 -4 -6 3 -14z"/>
<path d="M2975 2500 c-3 -5 -1 -10 4 -10 6 0 11 5 11 10 0 6 -2 10 -4 10 -3 0
-8 -4 -11 -10z"/>
<path d="M2936 2422 c-3 -5 1 -9 9 -9 8 0 12 4 9 9 -3 4 -7 8 -9 8 -2 0 -6 -4
-9 -8z"/>
<path d="M3999 2188 c-8 -27 -5 -36 9 -30 10 4 12 7 4 10 -7 2 -10 8 -6 13 3
5 3 9 0 9 -3 0 -6 -1 -7 -2z"/>
</g>
</svg>
